<mxfile>
    <diagram id="jeqjPPo3NNw3WmkLk27t" name="Page-1">
        <mxGraphModel dx="898" dy="410" grid="1" gridSize="10" guides="1" tooltips="1" connect="1" arrows="1" fold="1" page="1" pageScale="1" pageWidth="850" pageHeight="1100" math="0" shadow="0">
            <root>
                <mxCell id="0"/>
                <mxCell id="1" parent="0"/>
                <mxCell id="3" value="" style="ellipse;whiteSpace=wrap;html=1;" parent="1" vertex="1">
                    <mxGeometry x="290" y="140" width="80" height="90" as="geometry"/>
                </mxCell>
                <mxCell id="4" value="" style="ellipse;whiteSpace=wrap;html=1;" parent="1" vertex="1">
                    <mxGeometry x="366" y="170" width="10" height="40" as="geometry"/>
                </mxCell>
                <mxCell id="5" value="" style="ellipse;whiteSpace=wrap;html=1;" parent="1" vertex="1">
                    <mxGeometry x="283" y="170" width="10" height="40" as="geometry"/>
                </mxCell>
                <mxCell id="6" value="" style="ellipse;whiteSpace=wrap;html=1;" parent="1" vertex="1">
                    <mxGeometry x="290" y="150" width="80" height="80" as="geometry"/>
                </mxCell>
                <mxCell id="8" value="{ }" style="text;html=1;resizable=0;autosize=1;align=center;verticalAlign=middle;points=[];fillColor=none;strokeColor=none;rounded=0;" parent="1" vertex="1">
                    <mxGeometry x="315" y="180" width="30" height="20" as="geometry"/>
                </mxCell>
                <mxCell id="9" value="&amp;lt;&amp;gt;" style="text;html=1;resizable=0;autosize=1;align=center;verticalAlign=middle;points=[];fillColor=none;strokeColor=none;rounded=0;" parent="1" vertex="1">
                    <mxGeometry x="315" y="200" width="30" height="20" as="geometry"/>
                </mxCell>
                <mxCell id="12" value="#" style="text;html=1;resizable=0;autosize=1;align=center;verticalAlign=middle;points=[];fillColor=none;strokeColor=none;rounded=0;" parent="1" vertex="1">
                    <mxGeometry x="305" y="167" width="20" height="20" as="geometry"/>
                </mxCell>
                <mxCell id="14" value="#" style="text;html=1;resizable=0;autosize=1;align=center;verticalAlign=middle;points=[];fillColor=none;strokeColor=none;rounded=0;" parent="1" vertex="1">
                    <mxGeometry x="331" y="167" width="20" height="20" as="geometry"/>
                </mxCell>
                <mxCell id="17" value="" style="shape=stencil(lZbbbtswDIafxreEREokdd1171Gg2RJsS4o0O739GBhKTdkg5jtb5meJB/HnRE/vx5e3w4Tp/Xa9fDv8Pr3ejhN9mhBP5+PherrZ00TPEz19uVwPX6+Xn+fX+f3t5W55f/px+XX/w5+ZyylBSncM09956bHweQa+n84LoDWo7OwJGob2iM5eAUtgr0DePiNwDgCBWj1QoUQ7MJTsgQZaA6ACepex9JVtoED2PpjTrAGAoP5IRJBaAGTI6gELQ5A2bUAeKBbWwGm1/w0A98xsAxWaz0NpYZTUCqc5oCK0IHGagcQDAhT4IAriE8e5r2wDDLl4IK4lIWDvA7ee+20gQ/JhFYQUHIkVivdBanhB7cTq8yAShpUJiu8AmiAHYbUgooyABuVdW//fA8jAQZQqQ/V5UAwzXc0H2gUkKG0PUAQk7wJKr5z/Baw0du1gV17qLsCOpLuAvMpD3JewjeVtgAaZRgYdiq90gdkG7PMQJWvP0ZFwlTiGRAGQu0AtgKhrmHzIcB9ijcs6thlrzxJoXGZgv0NLYV8yCUz+PnwoxjawagIGtOhI9nnYgbrEbANpbGQmk5Hs6igPLRaghxY87CXsrLX3rIW9BIVUxrHBRpUa1BGNXXIxa21HCJh2AavRbQ3Yw8foN0+Ny2/jmGhL84hJz/8A);fillColor=none;" vertex="1" parent="1">
                    <mxGeometry x="330" y="206.23" width="37.5" height="13.77" as="geometry"/>
                </mxCell>
            </root>
        </mxGraphModel>
    </diagram>
</mxfile>